<svg xmlns="http://www.w3.org/2000/svg" enable-background="new 0 0 66 66" viewBox="0 0 66 66" id="classical-maze"><path d="M24.7715,63h-9.4404V52.6001H33c0.5527,0,1-0.4478,1-1v-5.2002h10.4004v5.2002c0,0.5522,0.4473,1,1,1s1-0.4478,1-1v-5.2002
		h11.3994c0.5527,0,1-0.4478,1-1v-6.2002c0-0.5522-0.4473-1-1-1s-1,0.4478-1,1v5.2002H34v-5.2002c0-0.5522-0.4473-1-1-1H20.6006
		c-0.5527,0-1,0.4478-1,1v6.2002c0,0.5522,0.4473,1,1,1s1-0.4478,1-1v-5.2002H32v10.4004h-4.2002v-5.2002c0-0.5522-0.4473-1-1-1
		s-1,0.4478-1,1v5.2002H15.3311v-5.2002c0-0.5522-0.4473-1-1-1H9.2002V33c0-0.5522-0.4473-1-1-1s-1,0.4478-1,1v12.3999
		c0,0.5522,0.4473,1,1,1h5.1309V63H3V52.6001h4.2002v5.1997c0,0.5522,0.4473,1,1,1s1-0.4478,1-1v-6.1997c0-0.5522-0.4473-1-1-1H3
		V27.7998h10.3311v11.3999c0,0.5522,0.4473,1,1,1s1-0.4478,1-1V27.7998h5.2695c0.5527,0,1-0.4478,1-1s-0.4473-1-1-1H3V15.3999
		h4.2002v5.2002c0,0.5522,0.4473,1,1,1s1-0.4478,1-1v-5.2002h5.2002c0.5527,0,1-0.4478,1-1s-0.4473-1-1-1H3V3h22.7998v5.1997
		c0,0.5522,0.4473,1,1,1s1-0.4478,1-1V3h0.9619c0.5527,0,1-0.4478,1-1s-0.4473-1-1-1H2C1.4473,1,1,1.4478,1,2v62
		c0,0.5522,0.4473,1,1,1h22.7715c0.5527,0,1-0.4478,1-1S25.3242,63,24.7715,63z"></path><path d="M64,1H37.4492c-0.5527,0-1,0.4478-1,1s0.4473,1,1,1h0.751v10.3999H34V8.1997c0-0.5522-0.4473-1-1-1s-1,0.4478-1,1v5.2002
		H21.6006V8.1997c0-0.5522-0.4473-1-1-1H8.0625c-0.5527,0-1,0.4478-1,1s0.4473,1,1,1h11.5381v10.4004h-5.2695
		c-0.5527,0-1,0.4478-1,1s0.4473,1,1,1h6.2695c0.5527,0,1-0.4478,1-1v-5.2002h16.5996v10.3999H33c-0.5527,0-1,0.4478-1,1
		s0.4473,1,1,1h11.4004V32H27.7998V21.6001H33c0.5527,0,1-0.4478,1-1s-0.4473-1-1-1h-6.2002c-0.5527,0-1,0.4478-1,1V32h-5.1992
		c-0.5527,0-1,0.4478-1,1s0.4473,1,1,1h6.1992h18.6006c0.5527,0,1-0.4478,1-1v-5.2002h5.2002c0.5527,0,1-0.4478,1-1s-0.4473-1-1-1
		H40.2002V3h16.5996v5.1997c0,0.5522,0.4473,1,1,1s1-0.4478,1-1V3H63v10.3999H52.6006V8.1997c0-0.5522-0.4473-1-1-1h-6.2002
		c-0.5527,0-1,0.4478-1,1s0.4473,1,1,1h5.2002v5.2002c0,0.5522,0.4473,1,1,1H63V32h-4.2002V20.6001c0-0.5522-0.4473-1-1-1H46.4004
		v-5.2002c0-0.5522-0.4473-1-1-1s-1,0.4478-1,1v6.2002c0,0.5522,0.4473,1,1,1h11.3994V32h-5.1992c-0.5527,0-1,0.4478-1,1v5.1997
		H39.2002c-0.5527,0-1,0.4478-1,1s0.4473,1,1,1h12.4004c0.5527,0,1-0.4478,1-1V34H63v29h-4.2002v-5.2002c0-0.5522-0.4473-1-1-1
		s-1,0.4478-1,1V63H40.2002v-4.2002h11.4004c0.5527,0,1-0.4478,1-1v-5.1997h5.1992c0.5527,0,1-0.4478,1-1s-0.4473-1-1-1h-6.1992
		c-0.5527,0-1,0.4478-1,1v5.1997H40.2002v-5.1997c0-0.5522-0.4473-1-1-1s-1,0.4478-1,1v5.1997H20.6006c-0.5527,0-1,0.4478-1,1
		s0.4473,1,1,1h17.5996V63H32.918c-0.5527,0-1,0.4478-1,1s0.4473,1,1,1H64c0.5527,0,1-0.4478,1-1V2C65,1.4478,64.5527,1,64,1z"></path></svg>